<svg width="469" height="511" xmlns="http://www.w3.org/2000/svg">
 <g>
  <title>background</title>
  <rect x="-1" y="-1" width="471" height="513" id="canvas_background" fill="none"/>
 </g>

 <g>
  <title>Layer 1</title>
  <path d="m228,465c-125.921,0 -228,10.297 -228,23c0,12.703 102.079,23 228,23c125.921,0 228,-10.297 228,-23c0,-12.703 -102.079,-23 -228,-23z" fill="#F0F0F5" id="svg_2"/>
  <path d="m434.38,398.817c0,0 -32.348,92.239 -35.814,92.239c-3.466,0 -72.784,21.907 -11.553,-5.765c0,0 6.932,-100.31 17.33,-104.922c10.397,-4.611 30.037,18.448 30.037,18.448z" fill="#965450" id="svg_3"/>
  <path d="m410.119,465.229c10.513,-27.326 24.262,-66.412 24.262,-66.412c0,0 -19.641,-23.059 -30.038,-18.448c-6.701,2.998 -12.015,46.12 -14.904,76.097c6.932,2.768 13.748,5.765 20.68,8.763z" fill="#76413B" id="svg_4"/>
  <path d="m376.962,490.249c0,0 -2.657,6.111 22.759,-0.346l-1.155,3.459c0,0 -71.628,16.834 -21.604,-3.113z" fill="#051F38" id="svg_5"/>
  <path d="m414.74,359.731c0,0 50.024,84.053 47.829,86.705c-2.195,2.651 -29.922,69.755 -11.9,5.073c0,0 -72.552,-69.756 -69.433,-80.709c3.235,-10.838 33.504,-11.069 33.504,-11.069z" fill="#965450" id="svg_6"/>
  <path d="m448.128,462.347c0,0 3.004,5.995 14.326,-17.641l1.964,3.113c-0.116,0 -33.157,65.72 -16.29,14.528z" fill="#051F38" id="svg_7"/>
  <path d="m443.854,409.771c-13.402,-23.637 -29.114,-50.04 -29.114,-50.04c0,0 -30.269,0.231 -33.504,11.069c-2.079,7.033 27.728,38.855 48.87,60.301c0.115,0.115 8.318,-8.993 13.748,-21.33z" fill="#76413B" id="svg_8"/>
  <path d="m446.51,233.364c0,0 -30.616,-34.013 -48.523,-12.683c-17.907,21.33 -45.634,91.662 -41.591,120.487c2.427,16.949 18.716,35.051 31.771,47.157l-10.975,61.8c0,0 45.056,12.106 42.168,12.106c-1.733,0 44.479,-123.945 49.1,-163.147c4.622,-39.201 -21.95,-65.72 -21.95,-65.72z" fill="#6633CC" id="svg_9"/>
  <path opacity="0.2" d="m423.059,240.974c8.549,-0.116 17.907,-1.269 26.109,-4.612c-1.617,-1.96 -2.657,-2.998 -2.657,-2.998c0,0 -30.615,-34.013 -48.522,-12.683c-2.773,3.344 -5.777,7.725 -8.781,13.029c10.052,5.534 22.76,7.494 33.851,7.264z" fill="#352C38" id="svg_10"/>
  <path opacity="0.2" d="m377.193,257.461c-12.708,28.94 -23.452,64.913 -20.795,83.592c2.31,16.833 18.485,34.82 31.539,46.926c4.622,-31.361 13.055,-74.944 18.139,-100.079c-12.593,-7.148 -22.991,-17.41 -28.883,-30.439z" fill="#352C38" id="svg_11"/>
  <path d="m358.131,165.337l-18.485,35.743c0,0 -32.348,-17.871 -36.97,-17.871c-4.621,0 -26.571,0.576 -16.174,5.188c0,0 -4.621,2.882 0.578,4.035c0,0 -4.621,4.036 1.155,4.612l13.286,-0.576c0,0 26.572,24.213 39.858,27.671c13.286,3.459 34.659,-41.507 34.659,-41.507l-17.907,-17.295z" fill="#965450" id="svg_12"/>
  <path d="m361.135,190.934c2.888,1.038 5.892,2.076 8.896,3.113c3.697,-6.456 6.007,-11.53 6.007,-11.53l-17.907,-17.294l-10.167,19.6c4.044,2.537 8.55,4.497 13.171,6.111z" fill="#76413B" id="svg_13"/>
  <path d="m381.236,148.043c0,0 -17.329,-2.882 -23.684,6.342c-6.354,9.223 -9.242,24.212 -9.242,24.212l24.839,12.107l8.087,-42.661z" fill="#34CB79" id="svg_14"/>
  <path opacity="0.1" d="m371.648,180.673c-6.354,-4.958 -13.633,-11.184 -18.369,-18.679c-3.466,8.071 -5.084,16.488 -5.084,16.488l24.839,12.106l1.502,-7.84c-0.924,-0.576 -1.964,-1.268 -2.888,-2.075z" fill="#161826" id="svg_15"/>
  <path d="m259.699,178.943c0.693,1.845 -0.346,3.92 -2.195,4.612l-13.632,4.958c-1.849,0.692 -3.928,-0.346 -4.622,-2.191l-5.429,-15.104c-0.694,-1.845 0.346,-3.92 2.195,-4.612l13.632,-4.958c1.849,-0.691 3.928,0.346 4.621,2.191l5.43,15.104z" fill="#23173B" id="svg_16"/>
  <path d="m270.674,167.644l-42.746,15.335c-7.509,2.651 -11.321,10.953 -8.664,18.447l13.17,36.55c2.657,7.494 10.975,11.299 18.485,8.647l42.746,-15.334c7.509,-2.652 11.322,-10.954 8.665,-18.448l-13.171,-36.55c-2.772,-7.494 -10.975,-11.414 -18.485,-8.647zm27.497,48.541c1.039,2.997 -0.463,6.341 -3.466,7.379l-18.37,-50.732c3.004,-1.037 6.355,0.462 7.394,3.459l14.442,39.894z" fill="#322153" id="svg_17"/>
  <path d="m256.926,163.608c0.578,1.615 -0.231,3.459 -1.848,4.036l-19.409,7.033c-1.618,0.577 -3.466,-0.23 -4.044,-1.845l-1.617,-4.496c-0.578,-1.614 0.231,-3.459 1.848,-4.036l19.409,-7.033c1.618,-0.576 3.466,0.231 4.044,1.845l1.617,4.496z" fill="#6633CC" id="svg_18"/>
  <path d="m284.191,185.515c0,0 7.279,-2.536 8.55,-1.038c1.155,1.384 -6.123,3.459 -5.777,3.575c0.231,0.115 7.856,-1.614 8.549,0c0.694,1.614 -8.087,4.496 -8.087,4.496c0,0 8.318,-2.306 8.896,-0.576c0.578,1.729 -8.665,4.266 -8.665,4.266l-0.462,-3.805l-0.577,-4.381l-2.427,-2.537z" fill="#965450" id="svg_19"/>
  <path d="m294.474,183.555c0,0 -5.661,-3.805 -5.661,-5.073c-0.116,-1.384 15.019,4.958 15.019,4.958l-9.358,0.115z" fill="#965450" id="svg_20"/>
  <path d="m406.075,145.161c-1.155,2.075 4.506,-46.2349 4.506,-46.2349l-26.225,17.6409c0,0 2.31,30.9 -0.578,31.015c-1.155,0 -5.661,1.73 -10.629,3.574c1.156,5.765 3.466,7.033 5.43,12.568c14.673,-0.115 30.616,-0.461 39.627,-13.836c-5.199,-1.729 -10.629,-7.61 -12.131,-4.727z" fill="#76413B" id="svg_21"/>
  <path d="m381.236,148.043l-1.155,-4.035l28.883,-6.342l1.155,6.918c0,0 34.659,11.53 39.28,37.472c4.621,25.942 2.311,42.661 -2.888,51.308c0,0 -40.436,5.765 -57.765,-2.882c-17.33,-8.648 -35.237,-73.215 -25.994,-78.98c9.242,-5.765 18.484,-3.459 18.484,-3.459z" fill="#34CB79" id="svg_22"/>
  <path opacity="0.1" d="m419.015,219.874c-13.864,-0.807 -30.847,-2.421 -42.4,-10.953c-2.195,-1.614 -4.159,-3.344 -6.007,-5.304c5.199,12.798 11.668,23.636 18.138,26.865c17.33,8.647 57.765,2.882 57.765,2.882c2.311,-3.805 4.044,-9.224 4.852,-16.372c-10.397,3.113 -21.257,3.574 -32.348,2.882z" fill="#161826" id="svg_23"/>
  <path d="m417.628,199.927l29.46,-2.306c0,0 -7.509,51.884 -16.174,69.756c-8.664,17.871 -48.522,88.203 -32.926,49.001c0,0 -20.217,30.555 -2.888,-0.576c0,0 -19.062,24.789 -2.311,-1.729c0,0 -19.64,22.483 1.156,-9.224c0,0 -15.597,7.494 1.733,-5.189l16.752,-43.813l5.198,-55.92z" fill="#965450" id="svg_24"/>
  <path d="m446.395,201.772c0.463,-2.652 0.694,-4.266 0.694,-4.266l-29.461,2.306l-0.231,2.998c9.589,0 19.294,-0.461 28.998,-1.038z" fill="#76413B" id="svg_25"/>
  <path d="m386.782,67.9108c0,0 14.673,-8.5321 36.161,5.5343c14.21,9.3392 13.517,39.2019 -17.214,58.8019c-36.507,23.291 -18.947,-64.3362 -18.947,-64.3362z" fill="#051F38" id="svg_26"/>
  <path d="m407.116,83.822c0,0 -16.521,-12.7982 -30.616,-6.572c-17.791,8.0709 -15.943,26.864 -16.29,42.891c-0.462,21.33 16.406,25.366 21.489,25.596c7.509,0.461 38.125,-1.383 25.417,-61.915z" fill="#965450" id="svg_27"/>
  <path d="m408.733,103.769c0,0 0.693,-3.229 6.239,-0.692c7.047,3.343 3.235,20.177 -4.622,19.716c-7.971,-0.346 -1.617,-19.024 -1.617,-19.024z" fill="#965450" id="svg_28"/>
  <path d="m408.732,103.769c0,0 0.925,11.529 -1.733,11.645c-2.772,0.115 -5.661,-20.8693 1.964,-20.8693c7.625,0.2306 -0.231,9.2243 -0.231,9.2243z" fill="#051F38" id="svg_29"/>
  <path d="m408.733,103.769c0,0 -5.661,-25.5966 -39.28,-21.3306c0,0 4.852,-9.5698 15.481,-14.0664c14.441,-6.1108 36.045,18.4478 30.037,34.705c0,0 -2.772,0.346 -6.238,0.692z" fill="#34CB79" id="svg_30"/>
  <path d="m422.943,80.1324c0,0 -1.849,-30.5541 5.545,-30.5541c7.394,0 -0.578,25.7116 -0.578,25.7116c0,0 6.124,-36.7802 23.915,-31.2459c17.792,5.5343 -12.939,31.2459 -12.939,31.2459c0,0 14.094,-12.9134 19.062,-8.5321c4.852,4.266 -20.218,12.9134 -20.218,12.9134c0,0 19.063,-5.5343 21.489,3.6896c2.426,9.1085 -36.854,7.8403 -36.276,-3.2284z" fill="#051F38" id="svg_31"/>
  <path d="m361.134,97.8889c0,0 0,-0.2306 0.231,-0.6918c0.231,-0.4612 0.462,-1.0377 1.04,-1.6142c0.578,-0.5765 1.271,-1.2683 2.195,-1.7295c0.231,-0.1153 0.462,-0.2306 0.809,-0.3459c0.231,-0.1153 0.578,-0.2306 0.809,-0.2306c0.346,0 0.577,-0.1153 0.924,-0.1153l0.924,0c0.578,0 1.155,0.2306 1.733,0.4612c0.578,0.2306 1.04,0.4612 1.502,0.8071c0.462,0.3459 0.809,0.6918 1.155,1.0377c0.347,0.3459 0.578,0.6918 0.693,1.0377c0.116,0.1153 0.231,0.3459 0.231,0.4612c0.116,0.1153 0.116,0.3459 0.231,0.4612c0.116,0.3459 0.232,0.5765 0.232,0.8071c0.115,0.4611 0.115,0.6917 0.115,0.6917c0,0 -0.231,-0.1153 -0.693,-0.2305c-0.231,-0.1153 -0.462,-0.2307 -0.693,-0.3459c-0.231,-0.1153 -0.578,-0.2306 -0.925,-0.4612c-0.346,-0.1153 -0.577,-0.3459 -0.924,-0.4612c-0.346,-0.1153 -0.693,-0.2306 -1.04,-0.3459c-0.346,-0.1153 -0.693,-0.2306 -1.039,-0.3459c-0.347,0 -0.693,-0.1153 -1.04,-0.1153l-0.462,0c-0.116,0 -0.347,0 -0.578,0c-0.346,0 -0.693,0.1153 -1.04,0.1153c-0.346,0.1153 -0.693,0.1153 -1.039,0.2306c-0.347,0.1153 -0.694,0.1153 -1.04,0.2306c-0.693,0.2306 -1.271,0.3459 -1.618,0.4612c-0.346,0.2306 -0.693,0.2306 -0.693,0.2306z" fill="#051F38" id="svg_32"/>
  <path d="m370.03,129.595c0,0 18.947,0.577 20.217,0.346c1.156,-0.23 -10.628,8.994 -20.217,-0.346z" fill="white" id="svg_33"/>
  <path d="m371.301,108.496c0,0 0,0.23 -0.116,0.692c-0.115,0.461 -0.231,1.037 -0.462,1.844c-0.115,0.346 -0.231,0.807 -0.462,1.153c-0.116,0.231 -0.231,0.462 -0.347,0.577c-0.115,0.23 -0.346,0.461 -0.462,0.576c-0.346,0.346 -0.693,0.807 -1.271,1.038c-0.115,0.115 -0.231,0.115 -0.462,0.231l-0.346,0.115c-0.231,0.115 -0.578,0.115 -0.924,0.115c-0.578,0 -1.271,-0.115 -1.733,-0.576c-0.463,-0.346 -0.809,-0.807 -1.04,-1.384c-0.231,-0.461 -0.347,-0.922 -0.462,-1.383c-0.116,-0.462 -0.116,-0.923 -0.116,-1.269c0,-0.807 0,-1.383 0.116,-1.844c0.115,-0.462 0.231,-0.692 0.231,-0.692c0,0 0,1.037 0.346,2.536c0.116,0.692 0.347,1.614 0.809,2.306c0.231,0.346 0.462,0.692 0.809,0.923c0.346,0.23 0.693,0.346 1.04,0.346c0.231,0 0.346,0 0.577,-0.116l0.347,-0.115c0,0 0.115,-0.115 0.231,-0.115c0.346,-0.116 0.693,-0.462 1.04,-0.692c0.346,-0.346 0.577,-0.692 0.808,-1.038c0.231,-0.346 0.462,-0.692 0.578,-1.038c0.347,-0.691 0.578,-1.268 0.809,-1.614c0.346,-0.346 0.462,-0.576 0.462,-0.576z" fill="#1F2733" id="svg_34"/>
  <path d="m390.363,109.995c0,0 0,0.23 -0.115,0.691c-0.116,0.462 -0.231,1.038 -0.462,1.845c-0.116,0.346 -0.231,0.807 -0.463,1.153c-0.115,0.231 -0.231,0.461 -0.346,0.577c-0.116,0.23 -0.347,0.461 -0.462,0.576c-0.347,0.346 -0.693,0.807 -1.271,1.038c-0.116,0.115 -0.231,0.115 -0.462,0.231l-0.347,0.115c-0.231,0.115 -0.577,0.115 -0.924,0.115c-0.578,0 -1.271,-0.115 -1.733,-0.576c-0.462,-0.346 -0.809,-0.807 -1.04,-1.384c-0.231,-0.461 -0.346,-0.922 -0.462,-1.384c-0.115,-0.461 -0.115,-0.922 -0.115,-1.268c0,-0.807 0,-1.383 0.115,-1.845c0.116,-0.461 0.231,-0.691 0.231,-0.691c0,0 0,1.037 0.347,2.536c0.115,0.692 0.346,1.614 0.809,2.306c0.231,0.346 0.462,0.692 0.808,0.923c0.347,0.23 0.693,0.345 1.04,0.345c0.231,0 0.347,0 0.578,-0.115l0.346,-0.115c0,0 0.116,-0.115 0.231,-0.115c0.347,-0.116 0.693,-0.462 1.04,-0.692c0.347,-0.346 0.578,-0.692 0.809,-1.038c0.231,-0.346 0.462,-0.692 0.577,-1.038c0.347,-0.691 0.578,-1.268 0.809,-1.614c0.347,-0.346 0.462,-0.576 0.462,-0.576z" fill="#1F2733" id="svg_35"/>
  <path d="m411.39,119.565c0.346,-0.462 0.577,-0.808 0.808,-1.269c0.231,-0.461 0.347,-0.922 0.462,-1.383c0,-0.231 0,-0.462 0,-0.692c0,-0.115 -0.115,-0.231 -0.115,-0.231c0,-0.115 -0.116,-0.23 -0.231,-0.23c-0.116,-0.116 -0.116,-0.116 -0.231,-0.231l-0.231,-0.231c-0.116,-0.115 -0.231,-0.115 -0.347,-0.115l-0.346,-0.115l-0.232,-0.115l0,-0.231c-0.346,-1.268 -0.462,-2.421 -0.577,-3.69c-0.116,-0.576 -0.116,-1.268 0,-1.844c0,-0.692 0.115,-1.269 0.346,-1.96c0.116,-0.346 0.347,-0.692 0.694,-0.923c0.346,-0.23 0.808,-0.461 1.155,-0.346c0.462,0 0.693,0.116 1.04,0.231c0.346,0.115 0.693,0.231 0.924,0.461c0.231,0.231 0.578,0.461 0.693,0.692c0.231,0.231 0.347,0.576 0.462,0.807c0.231,0.576 0.347,1.268 0.231,1.845c-0.115,-0.577 -0.231,-1.153 -0.577,-1.73c-0.116,-0.23 -0.347,-0.461 -0.578,-0.692c-0.231,-0.23 -0.462,-0.345 -0.693,-0.461c-0.231,-0.115 -0.462,-0.23 -0.809,-0.23c-0.231,0 -0.578,-0.116 -0.809,-0.116c-0.462,0 -0.693,0.346 -0.808,0.807c-0.347,1.038 -0.231,2.191 -0.231,3.344c0.115,1.153 0.231,2.421 0.462,3.574l-0.231,-0.345l0.346,0.23c0.116,0.115 0.231,0.115 0.347,0.231l0.346,0.23c0.116,0.116 0.231,0.231 0.347,0.346c0.116,0.116 0.231,0.231 0.231,0.461c0.116,0.116 0.116,0.346 0.116,0.462c0.115,0.345 0,0.576 0,0.922c-0.116,0.576 -0.463,1.038 -0.809,1.499c-0.347,0.346 -0.809,0.807 -1.155,1.038z" fill="#76413B" id="svg_36"/>
  <path d="m373.034,124.407c-0.578,0.115 -1.04,0.115 -1.502,0.115c-0.462,0 -0.924,-0.115 -1.271,-0.23c-0.462,-0.116 -0.809,-0.346 -1.155,-0.461c-0.231,-0.116 -0.347,-0.231 -0.578,-0.346c-0.231,-0.116 -0.346,-0.231 -0.577,-0.346l-0.694,-0.577l0.116,-0.461c1.155,-3.344 2.31,-6.572 3.466,-9.8c1.155,-3.229 2.426,-6.572 3.697,-9.801c-0.809,3.344 -1.733,6.803 -2.542,10.147c-0.924,3.343 -1.848,6.687 -2.773,10.031l-0.462,-1.038c0.231,0 0.462,0.115 0.693,0.115c0.231,0 0.463,0.115 0.578,0.231c0.347,0.115 0.809,0.346 1.155,0.576c0.347,0.231 0.694,0.577 1.04,0.923c0.231,0.115 0.578,0.461 0.809,0.922z" fill="#76413B" id="svg_37"/>
  <path d="m379.85,96.5048c0,0 0.116,-0.3459 0.462,-0.6918c0.231,-0.2306 0.347,-0.4612 0.693,-0.8071c0.347,-0.2306 0.578,-0.5765 1.04,-0.8071c0.347,-0.2306 0.809,-0.5765 1.386,-0.8071c0.463,-0.2306 1.04,-0.4612 1.618,-0.6918c0.578,-0.1153 1.271,-0.3459 1.964,-0.3459c0.347,0 0.693,0 1.04,0l1.039,0.1153c0.694,0 1.387,0.3459 1.964,0.4612c0.578,0.2306 1.156,0.5765 1.733,0.8071c0.578,0.3459 1.04,0.6918 1.387,1.0377c0.462,0.3459 0.808,0.8071 1.04,1.153c0.346,0.3459 0.577,0.6918 0.808,1.0377c0.231,0.3459 0.347,0.6918 0.462,0.9224c0.231,0.4612 0.347,0.8071 0.347,0.8071c0,0 -0.347,-0.1153 -0.809,-0.3459c-0.231,-0.1153 -0.577,-0.2306 -0.924,-0.4612c-0.347,-0.2306 -0.693,-0.3459 -1.155,-0.4612c-0.347,-0.1153 -0.809,-0.3459 -1.271,-0.5765c-0.462,-0.1153 -0.924,-0.3459 -1.386,-0.4612c-0.463,-0.1153 -0.925,-0.2306 -1.387,-0.3459c-0.462,0 -0.924,-0.2306 -1.502,-0.2306l-0.693,-0.1153l-0.693,0c-0.462,0 -1.04,0 -1.502,0c-0.462,0 -0.924,0 -1.386,0.1153c-0.462,0 -0.925,0.1153 -1.387,0.1153c-0.808,0.1153 -1.617,0.2306 -2.079,0.3459c-0.462,0.2306 -0.809,0.2306 -0.809,0.2306z" fill="#051F38" id="svg_38"/>
  <path d="m363.907,490.825c0,4.151 -3.35,7.61 -7.509,7.725c-4.159,0 -7.625,-3.343 -7.741,-7.494l-0.346,-24.443c0,-4.151 3.35,-7.61 7.509,-7.725c4.159,0 7.625,3.343 7.74,7.494l0.347,24.443z" fill="#091E1D" id="svg_39"/>
  <path d="m257.504,492.095c0,4.15 -3.35,7.609 -7.509,7.725c-4.159,0 -7.625,-3.344 -7.741,-7.495l-0.346,-24.443c0,-4.151 3.35,-7.61 7.509,-7.725c4.159,0 7.625,3.344 7.741,7.494l0.346,24.444z" fill="#091E1D" id="svg_40"/>
  <path d="m355.358,473.415c0.115,9.455 -7.51,17.18 -16.983,17.295l-71.166,0.807c-9.474,0.116 -17.214,-7.494 -17.33,-16.949l-7.625,-161.648c-0.115,-9.454 7.51,-17.179 16.983,-17.295l82.604,-1.037c9.473,-0.116 17.214,7.494 17.329,16.948l-3.812,161.879z" fill="#34CB79" id="svg_41"/>
  <path opacity="0.1" d="m358.708,327.793l0.347,-16.026c-0.116,-9.454 -7.856,-17.064 -17.33,-16.949l-82.604,1.038c-9.473,0.115 -17.098,7.84 -16.982,17.295l0.808,16.026l115.761,-1.384z" fill="#161826" id="svg_42"/>
  <path d="m372.803,307.732c0,2.651 -2.08,4.727 -4.737,4.842l-134.939,1.614c-2.657,0 -4.736,-2.075 -4.852,-4.727l-0.231,-17.064c0,-2.652 2.079,-4.727 4.737,-4.843l134.938,-1.614c2.658,0 4.737,2.076 4.853,4.727l0.231,17.065z" fill="#34CB79" id="svg_43"/>
  <path d="m301.174,355.119l15.712,-9.454l-3.812,9.8l-11.9,-0.346z" fill="white" id="svg_44"/>
  <path d="m295.283,340.246c0,0 1.271,0 3.235,2.997c1.964,2.998 6.354,11.069 6.354,11.069l7.971,-3.574l1.849,-3.113c0,0 -3.466,-6.918 -6.239,-7.379l-13.17,0z" fill="white" id="svg_45"/>
  <path d="m290.892,342.321c0,0 2.426,-2.652 4.39,-1.268c1.964,1.384 5.43,7.149 5.43,7.149l-5.661,9.915l-10.166,-5.649l6.007,-10.147z" fill="white" id="svg_46"/>
  <path d="m308.338,367.456l0.808,18.217l-6.816,-7.955l6.008,-10.262z" fill="white" id="svg_47"/>
  <path d="m324.281,369.301c0,0 -0.578,1.153 -4.16,1.499c-3.581,0.346 -12.823,0.346 -12.823,0.346l-0.694,8.762l1.849,3.113c0,0 7.74,0.346 9.473,-1.96l6.355,-11.76z" fill="white" id="svg_48"/>
  <path d="m324.396,364.458c0,0 1.271,3.344 -0.924,4.497c-2.08,1.038 -8.896,1.268 -8.896,1.268l-6.123,-9.685l9.82,-6.341l6.123,10.261z" fill="white" id="svg_49"/>
  <path d="m294.472,367.226l-16.174,-8.533l10.398,-1.844l5.776,10.377z" fill="white" id="svg_50"/>
  <path d="m284.885,380.024c0,0 -0.693,-1.038 0.809,-4.266c1.501,-3.229 6.123,-11.184 6.123,-11.184l-7.163,-4.958l-3.582,0.115c0,0 -4.159,6.572 -3.119,9.109l6.932,11.184z" fill="white" id="svg_51"/>
  <path d="m288.928,382.56c0,0 -3.581,-0.692 -3.35,-2.998c0.116,-2.421 3.35,-8.301 3.35,-8.301l11.438,-0.346l0.462,11.645l-11.9,0z" fill="white" id="svg_52"/>
  <path d="m53.247,445.167c0,0 -2.541,40.701 -4.736,41.508c-8.434,2.882 -72.091,19.024 -11.9,-8.071l-1.617,-29.632l18.253,-3.805z" fill="#051F38" id="svg_53"/>
  <path d="m50.59,476.759c1.502,-12.337 2.657,-31.592 2.657,-31.592l-18.253,3.805l1.502,26.404c4.505,1.268 9.704,1.383 14.094,1.383z" fill="#041523" id="svg_54"/>
  <path d="m11.079,492.786c-1.848,4.496 31.424,-4.036 37.432,-6.111c0.115,-0.115 0.346,-0.346 0.577,-0.923c-7.509,2.076 -30.268,7.264 -38.009,7.034z" fill="white" id="svg_55"/>
  <path d="m92.181,442.977c0,0 3.351,40.7 5.661,41.392c8.549,2.767 72.437,17.641 11.669,-8.302l1.039,-29.631l-18.369,-3.459z" fill="#051F38" id="svg_56"/>
  <path d="m95.532,474.453c-1.733,-12.221 -3.351,-31.476 -3.351,-31.476l18.369,3.459l-0.924,26.403c-4.506,1.384 -9.704,1.499 -14.094,1.614z" fill="#041523" id="svg_57"/>
  <path d="m135.389,489.788c1.964,4.496 -31.539,-3.459 -37.547,-5.419c-0.231,0 -0.346,-0.346 -0.577,-0.923c7.509,2.076 30.384,6.803 38.124,6.342z" fill="white" id="svg_58"/>
  <path d="m103.387,223.218c0,0 16.636,134.092 13.286,242.588c0,0 -19.871,5.534 -25.07,1.499c-4.506,-25.712 -3.928,-75.751 -10.629,-112.878c-6.354,-35.05 -8.895,-63.76 -8.895,-63.76l-2.08,-2.306c0,0 -13.633,169.489 -16.636,182.403c-17.214,4.035 -22.644,-0.692 -22.644,-0.692c0,0 -7.856,-212.034 -3.004,-246.278c6.239,-44.735 75.672,-0.576 75.672,-0.576z" fill="#34CB79" id="svg_59"/>
  <path opacity="0.1" d="m106.39,251.004c-1.733,-17.295 -3.12,-27.671 -3.12,-27.671c0,0 -69.317,-44.16 -75.672,0.576c-0.577,4.151 -0.924,10.953 -1.27,19.601c5.198,2.882 70.126,12.106 80.062,7.494z" fill="#161826" id="svg_60"/>
  <path opacity="0.1" d="m70.808,286.978c0.808,9.108 4.967,38.51 10.166,67.449c6.701,37.242 6.123,87.166 10.629,112.878c5.199,4.035 25.07,-1.499 25.07,-1.499c1.964,-66.758 -3.466,-143.201 -8.087,-192.087c-10.975,6.917 -24.955,10.261 -37.778,13.259z" fill="#161826" id="svg_61"/>
  <path d="m76.7,105.959c0.115,-14.0661 1.155,-32.6292 1.155,-32.6292l-27.727,-7.6097c0,0 0.924,25.1351 1.733,40.4699c-12.593,4.266 -26.919,12.337 -26.919,12.337l52.335,13.259l18.601,-17.986c0,0 -9.358,-4.728 -19.178,-7.841z" fill="#FFB39F" id="svg_62"/>
  <path d="m76.7,105.959c0.115,-14.0661 1.155,-32.6292 1.155,-32.6292l-27.727,-7.6097c0,0 0.924,25.1351 1.733,40.4699c-12.593,4.266 -26.919,12.337 -26.919,12.337l52.335,13.259l24.724,-21.215c0,0 -15.366,-5.765 -25.301,-4.612z" fill="#E09B8D" id="svg_63"/>
  <path d="m47.702,39.0862c0,0 7.278,-23.5209 26.456,-19.8313c19.178,3.6895 21.951,28.7093 24.377,45.5429c2.426,16.9488 -3.004,32.1682 -18.023,34.013c-13.055,1.6142 -35.814,-0.9224 -32.81,-59.7246z" fill="#FFB39F" id="svg_64"/>
  <path d="m48.626,58.8022c0,0 -1.155,-3.113 -5.892,0.3459c-6.008,4.3814 0.115,20.5231 7.394,18.7937c7.278,-1.7295 -1.502,-19.1396 -1.502,-19.1396z" fill="#FFB39F" id="svg_65"/>
  <path d="m41.925,25.5963c0.462,-0.1153 9.474,-0.8071 3.466,-0.2306c5.545,5.9955 4.968,7.4944 12.593,8.8779c4.043,12.4523 -3.928,19.9467 -3.928,19.9467l2.195,14.9888l-5.777,0.5765c0,0 0.116,-10.3769 -4.274,-11.2993c-4.39,-0.9224 -5.661,4.3814 -5.661,4.3814c-9.127,-11.5299 -18.37,-34.1284 1.386,-37.2414z" fill="#051F38" id="svg_66"/>
  <path d="m94.26,17.1795c3.697,-9.10861 -2.541,-17.1795 -2.541,-17.1795c1.039,3.34366 0.577,6.45671 -0.463,8.99328c-0.693,-2.53657 -1.964,-5.30373 -4.274,-8.07089c0,0 0.693,9.22391 -11.9,8.07089c-12.593,-1.15299 -34.659,0.57649 -35.583,20.06192c-1.04,19.4855 17.792,5.3037 17.792,5.3037c0,0 37.547,10.4922 42.977,-19.716l-6.008,2.5366z" fill="#051F38" id="svg_67"/>
  <path d="m76.469,50.8476c0,0 -0.347,0 -0.809,-0.1153c-0.578,-0.1153 -1.271,-0.2306 -2.079,-0.3459c-0.463,-0.1153 -0.809,-0.1153 -1.271,-0.1153c-0.462,-0.1153 -0.924,-0.1153 -1.387,-0.1153c-0.462,0 -0.924,0 -1.502,0c-0.231,0 -0.462,0 -0.693,0l-0.693,0.1153c-0.462,0 -0.924,0.1153 -1.502,0.2306c-0.462,0.1153 -0.924,0.2306 -1.386,0.3459c-0.462,0.1153 -0.924,0.3459 -1.386,0.4612c-0.463,0.1153 -0.809,0.3459 -1.271,0.4612c-0.347,0.1153 -0.809,0.2306 -1.04,0.4612c-0.347,0.1153 -0.578,0.2306 -0.809,0.3459c-0.462,0.2306 -0.808,0.3459 -0.808,0.3459c0,0 0.115,-0.3459 0.346,-0.8071c0.116,-0.2306 0.231,-0.5765 0.462,-0.9224c0.231,-0.3459 0.462,-0.6918 0.809,-1.0377c0.347,-0.3459 0.578,-0.8071 1.04,-1.153c0.462,-0.3459 0.924,-0.6918 1.502,-1.0377c0.577,-0.2306 1.155,-0.5765 1.733,-0.8071c0.693,-0.2306 1.27,-0.3459 1.964,-0.4612l1.039,-0.1153c0.347,0 0.694,0 1.04,0.1153c0.347,0 0.693,0.1153 0.924,0.1153c0.347,0.1153 0.578,0.1153 0.925,0.2306c0.577,0.2306 1.155,0.3459 1.617,0.6918c0.462,0.2306 0.924,0.5765 1.386,0.8071c0.347,0.2306 0.694,0.5765 1.04,0.8071c0.231,0.2306 0.462,0.5765 0.693,0.6918c-0.115,0.4612 0.116,0.8071 0.116,0.8071z" fill="#051F38" id="svg_68"/>
  <path d="m95.993,50.2701c0,0 -0.231,-0.1153 -0.693,-0.2306c-0.462,-0.1153 -1.04,-0.3459 -1.618,-0.5765c-0.346,-0.1153 -0.693,-0.2305 -1.039,-0.3458c-0.347,-0.1153 -0.694,-0.2307 -1.04,-0.2307c-0.347,0 -0.693,-0.1152 -1.04,-0.2305c-0.115,0 -0.347,0 -0.462,-0.1153l-0.462,0c-0.347,-0.1153 -0.693,0.1153 -1.04,0c-0.347,0.1153 -0.693,0.1153 -1.04,0.2306c-0.346,0.1153 -0.693,0.2306 -1.039,0.3459c-0.347,0.1153 -0.694,0.2305 -0.925,0.3458c-0.346,0.1153 -0.693,0.2306 -0.924,0.3459c-0.231,0.1153 -0.462,0.2306 -0.693,0.2306c-0.462,0.1153 -0.693,0.2306 -0.693,0.2306c0,0 0,-0.2306 0.231,-0.6918c0.115,-0.2306 0.115,-0.4612 0.346,-0.807c0.116,-0.3459 0.347,-0.5765 0.578,-0.9224c0.231,-0.3459 0.462,-0.6918 0.809,-1.0377c0.346,-0.3459 0.808,-0.5765 1.155,-0.9224c0.462,-0.2306 1.04,-0.4612 1.502,-0.6918c0.578,-0.1153 1.155,-0.2306 1.733,-0.2306c0.346,0 0.577,0 0.924,0c0.347,0 0.578,0.1153 0.809,0.2306c0.231,0 0.577,0.1153 0.808,0.2306c0.232,0.1153 0.463,0.2306 0.694,0.3459c0.924,0.5765 1.617,1.153 2.079,1.8448c0.462,0.6918 0.693,1.2683 0.924,1.7294c0.116,0.6918 0.116,0.9224 0.116,0.9224z" fill="#051F38" id="svg_69"/>
  <path d="m81.783,51.5384c0.693,1.4989 1.387,3.1131 2.08,4.612c0.346,0.807 0.577,1.4988 0.924,2.3059l0.924,2.306l0.924,2.306c0.347,0.8071 0.578,1.4988 0.925,2.3059l0.462,1.153c0.115,0.3459 0.346,0.8071 0.462,1.153c0.347,0.6918 0.693,1.3836 1.04,2.1907l0.346,0.9224l-0.693,0.3459c-1.04,0.4612 -2.079,1.0376 -3.235,1.4988c-1.039,0.4612 -2.195,0.9224 -3.35,1.2683c0.924,-0.8071 1.848,-1.4989 2.773,-2.1906c0.924,-0.6918 1.964,-1.3836 2.888,-2.0754l-0.347,1.2683c-0.462,-0.6918 -0.924,-1.4989 -1.386,-2.1907c-0.462,-0.6918 -0.809,-1.4989 -1.155,-2.306l-0.578,-1.153l-0.462,-1.1529c-0.231,-0.8071 -0.578,-1.6142 -0.809,-2.4213l-0.693,-2.4213c-0.231,-0.8071 -0.347,-1.6142 -0.578,-2.4213c-0.115,-1.8447 -0.346,-3.5742 -0.462,-5.3037z" fill="#DD9078" id="svg_70"/>
  <path d="m48.279,74.5981c-0.462,-0.2306 -0.924,-0.5765 -1.27,-1.0377c-0.347,-0.3459 -0.809,-0.8071 -1.04,-1.3835c-0.116,-0.2306 -0.231,-0.5765 -0.231,-0.9224c0,-0.1153 0,-0.3459 0,-0.4612c0,-0.1153 0.115,-0.3459 0.115,-0.4612c0.116,-0.3459 0.347,-0.5765 0.578,-0.8071c0.115,-0.1153 0.231,-0.2306 0.346,-0.3459l0.347,-0.2306l-0.231,0.3459c0,-1.2683 0,-2.5366 -0.116,-3.6896c-0.115,-1.2682 -0.231,-2.5365 -0.693,-3.5742c-0.115,-0.2306 -0.231,-0.4612 -0.462,-0.5765c-0.115,-0.1153 -0.346,-0.2306 -0.577,-0.2306c-0.116,0 -0.232,0 -0.347,0.1153c-0.116,0 -0.347,0.1153 -0.462,0.1153c-0.231,0.1153 -0.462,0.2306 -0.693,0.4612c-0.231,0.2306 -0.463,0.3459 -0.578,0.5765c-0.116,0.2306 -0.347,0.4612 -0.462,0.8071c-0.231,0.5765 -0.347,1.153 -0.347,1.8447c-0.231,-0.5765 -0.231,-1.2682 -0.115,-1.96c0,-0.3459 0.115,-0.6918 0.346,-0.9224c0.116,-0.3459 0.347,-0.5765 0.578,-0.8071l0.347,-0.3459l0.462,-0.3459c0.115,-0.1153 0.346,-0.1153 0.462,-0.2306c0.115,-0.1153 0.346,-0.1153 0.577,-0.2306c0.463,-0.1153 0.925,0 1.271,0.3459c0.347,0.2306 0.578,0.5765 0.693,0.9224c0.347,0.6918 0.463,1.2683 0.694,1.9601c0.115,0.6918 0.231,1.2682 0.231,1.96c0.115,1.2683 0.115,2.5366 0,3.9202l0,0.2306l-0.231,0.1153c-0.231,0.1153 -0.462,0.2306 -0.578,0.4612c-0.116,0.1153 -0.347,0.3459 -0.462,0.4612c-0.116,0.1153 -0.116,0.2306 -0.116,0.3459c0,0.1153 -0.115,0.2306 -0.115,0.3459c0,0.2306 0,0.4612 0,0.6917c0.115,0.4612 0.346,0.9224 0.693,1.3836c0.693,0.4612 1.04,0.8071 1.386,1.153z" fill="#DD9078" id="svg_71"/>
  <path d="m66.417,61.8c0,0 0.116,0.2306 0.232,0.6917c0.115,0.2306 0.115,0.4612 0.231,0.6918c0.115,0.2306 0.231,0.5765 0.462,0.9224c0.115,0.3459 0.462,0.5765 0.577,0.9224c0.116,0.1153 0.231,0.2306 0.462,0.4612c0.116,0.1153 0.232,0.2306 0.463,0.3459c0.346,0.2306 0.693,0.3459 1.039,0.4612c0.231,0 0.347,0.1153 0.578,0.1153c0.231,0 0.347,0 0.578,-0.1153l0.577,-0.2306l0.578,-0.3459c0.347,-0.2306 0.578,-0.5765 0.809,-0.9224c0.231,-0.3459 0.346,-0.6918 0.577,-1.0377c0.116,-0.3459 0.231,-0.6918 0.231,-1.153c0,-0.3459 0,-0.6918 0.116,-0.9223c0,-0.3459 0,-0.5765 0,-0.8071c0,-0.4612 0,-0.6918 0,-0.6918c0,0 0.115,0.2306 0.231,0.6918c0.116,0.2306 0.116,0.4612 0.231,0.8071c0,0.3458 0.116,0.6917 0.116,1.0376c0,0.3459 0,0.8071 -0.116,1.2683c-0.115,0.4612 -0.231,0.9224 -0.462,1.3836c-0.231,0.4612 -0.578,0.9224 -1.04,1.2683l-0.693,0.4612c-0.231,0.1153 -0.578,0.2306 -0.809,0.3459c-0.231,0 -0.577,0.1153 -0.924,0.1153c-0.231,0 -0.578,-0.1153 -0.809,-0.1153c-0.577,-0.1153 -1.039,-0.4612 -1.502,-0.8071c-0.462,-0.3459 -0.693,-0.8071 -0.924,-1.153c-0.231,-0.4612 -0.462,-0.8071 -0.577,-1.153c-0.116,-0.3459 -0.232,-0.6918 -0.232,-1.0377c0,-0.3459 0,-0.5765 0,-0.8071c0,-0.4611 0,-0.6917 0,-0.6917z" fill="#1F2733" id="svg_72"/>
  <path d="m87.329,58.341c0,0 0.115,0.2306 0.231,0.6918c0.115,0.2306 0.115,0.4612 0.231,0.6918c0.115,0.2306 0.231,0.5765 0.462,0.9224c0.115,0.3459 0.462,0.5765 0.578,0.9224c0.115,0.1153 0.231,0.2306 0.462,0.4612c0.115,0.1153 0.231,0.2306 0.462,0.3459c0.346,0.2306 0.693,0.3459 1.04,0.4612c0.231,0 0.346,0.1153 0.577,0.1153c0.231,0 0.347,0 0.578,-0.1153l0.577,-0.2306l0.578,-0.3459c0.347,-0.2306 0.578,-0.5765 0.809,-0.9224c0.231,-0.3459 0.346,-0.6918 0.577,-1.0377c0.116,-0.3459 0.232,-0.6918 0.232,-1.153c0,-0.3459 0,-0.6918 0.115,-0.9224c0,-0.3459 0,-0.5765 0,-0.8071c0,-0.4612 0,-0.6917 0,-0.6917c0,0 0.116,0.2305 0.231,0.6917c0.116,0.2306 0.116,0.4612 0.231,0.8071c0,0.3459 0.116,0.6918 0.116,1.0377c0,0.3459 0,0.8071 -0.116,1.2683c-0.115,0.4612 -0.231,0.9224 -0.462,1.3836c-0.231,0.4612 -0.578,0.9224 -1.04,1.2683l-0.693,0.4612c-0.231,0.1153 -0.578,0.2306 -0.809,0.3458c-0.231,0 -0.577,0.1154 -0.924,0.1154c-0.231,0 -0.577,-0.1154 -0.809,-0.1154c-0.577,-0.1152 -1.039,-0.4611 -1.501,-0.807c-0.463,-0.3459 -0.694,-0.8071 -0.925,-1.153c-0.231,-0.4612 -0.462,-0.8071 -0.577,-1.153c-0.116,-0.3459 -0.231,-0.6918 -0.231,-1.0377c0,-0.3459 0,-0.5765 0,-0.8071c0,-0.4612 0,-0.6918 0,-0.6918z" fill="#1F2733" id="svg_73"/>
  <path d="m68.237,78.1034c0,0 -0.116,0 0,0.1153c0.115,0.1153 0.346,0.2306 0.578,0.3459c0.462,0.3459 1.27,0.6918 2.195,1.153c0.924,0.4612 2.079,0.9224 3.234,1.2682c0.578,0.2306 1.271,0.3459 1.849,0.4612c0.578,0.1153 1.271,0.2306 1.964,0.3459c1.271,0.1153 2.542,0.2306 3.812,0.1153c1.271,-0.1153 2.311,-0.3459 3.351,-0.6918c0.924,-0.3459 1.733,-0.5764 2.31,-0.807c0.578,-0.2306 0.925,-0.3459 0.925,-0.3459c0,0 -0.231,0.3459 -0.694,0.6917c-0.462,0.4612 -1.155,1.0377 -2.079,1.6142c-0.924,0.5765 -2.195,1.153 -3.582,1.3836c-1.386,0.3459 -2.888,0.3459 -4.39,0.2306c-0.693,-0.1153 -1.502,-0.2306 -2.195,-0.4612c-0.693,-0.2306 -1.386,-0.4612 -1.964,-0.8071c-1.271,-0.5765 -2.31,-1.2683 -3.119,-1.9601c-0.809,-0.6917 -1.502,-1.3835 -1.849,-1.96c-0.231,-0.2306 -0.346,-0.4612 -0.346,-0.6918c-0.116,0 -0.116,0.1153 0,0z" fill="#DD9078" id="svg_74"/>
  <path d="m86.289,105.613c0,0 29.576,-3.113 33.388,19.486c3.813,22.714 3.466,28.824 3.466,28.824l-28.882,-4.266l-7.972,-44.044z" fill="#6633CC" id="svg_75"/>
  <path d="m111.242,123.83c-1.733,-14.413 -16.405,-17.526 -24.954,-18.218c-3.813,5.304 -9.127,9.109 -16.405,9.34c-8.319,0.23 -15.944,-2.652 -19.987,-8.994c-12.939,1.499 -25.763,5.189 -28.652,13.951c-6.123,18.448 -0.808,119.911 -0.808,119.911c0,0 51.757,8.878 94.272,0.807c-0.115,0.115 -1.155,-97.543 -3.466,-116.797z" fill="#6633CC" id="svg_76"/>
  <path opacity="0.2" d="m18.242,169.258c0.231,33.437 2.195,70.678 2.195,70.678c0,0 51.757,8.878 94.272,0.807c0,0 -0.809,-74.137 -2.542,-105.959c-31.308,11.645 -62.617,23.175 -93.925,34.474z" fill="#352C38" id="svg_77"/>
  <path d="m50.127,196.007c0,0 -1.155,-3.343 4.159,-5.534c5.315,-2.191 60.076,-16.488 63.542,-16.026c3.465,0.461 45.865,5.534 46.558,7.84c0.693,2.306 -50.718,18.909 -50.718,18.909l-63.541,-5.189z" fill="#E1EDFF" id="svg_78"/>
  <path d="m116.557,205.577c0,0 -59.96,-0.23 -64.581,-5.649c-4.621,-5.419 -4.737,-9.34 21.489,-4.728c26.225,4.612 41.359,3.92 41.359,3.92c0,0 48.061,-22.367 49.678,-16.948c1.502,5.534 6.585,4.15 -47.945,23.405z" fill="#C0D5FF" id="svg_79"/>
  <path d="m164.387,182.287c-1.502,-5.419 -49.678,16.949 -49.678,16.949c0,0 -0.116,0 -0.462,0c1.039,2.075 1.848,4.035 2.772,6.226c54.068,-19.14 48.985,-17.756 47.368,-23.175z" fill="#B1C5E8" id="svg_80"/>
  <path d="m48.394,183.67c0,0 -1.156,-3.343 4.159,-5.534c5.314,-2.191 60.075,-16.488 63.541,-16.026c3.466,0.461 45.865,5.534 46.559,7.84c0.693,2.306 -50.718,18.909 -50.718,18.909l-63.541,-5.189z" fill="#E1EDFF" id="svg_81"/>
  <path d="m114.824,193.356c0,0 -59.96,-0.231 -64.581,-5.65c-4.621,-5.419 -4.737,-9.339 21.488,-4.727c26.226,4.612 41.36,3.92 41.36,3.92c0,0 48.06,-22.368 49.678,-16.949c1.386,5.419 6.585,4.035 -47.945,23.406z" fill="#C0D5FF" id="svg_82"/>
  <path d="m162.654,170.065c-1.502,-5.419 -49.678,16.949 -49.678,16.949c0,0 -0.116,0 -0.462,0c1.039,2.076 1.848,4.036 2.772,6.226c53.953,-19.255 48.869,-17.871 47.368,-23.175z" fill="#B1C5E8" id="svg_83"/>
  <path d="m48.163,173.639c0,0 -1.04,-2.882 4.043,-4.842c5.084,-1.96 58.112,-14.528 61.462,-14.067c3.351,0.462 44.364,4.958 45.057,6.918c0.693,1.96 -49.1,16.719 -49.1,16.719l-61.462,-4.728z" fill="#E1EDFF" id="svg_84"/>
  <path d="m112.398,182.172c0,0 -57.996,-0.231 -62.501,-4.958c-4.506,-4.728 -4.506,-8.187 20.795,-4.151c25.301,4.035 39.973,3.459 39.973,3.459c0,0 46.559,-19.716 48.061,-14.874c1.502,4.728 6.469,3.459 -46.328,20.524z" fill="#C0D5FF" id="svg_85"/>
  <path d="m158.726,161.648c-1.502,-4.727 -48.061,14.874 -48.061,14.874c0,0 -0.115,0 -0.462,0c0.924,1.729 1.849,3.574 2.657,5.419c52.335,-16.834 47.368,-15.565 45.866,-20.293z" fill="#B1C5E8" id="svg_86"/>
  <path d="m49.78,160.15c0,0 -0.924,-2.883 4.275,-4.728c5.199,-1.729 58.574,-12.337 61.924,-11.76c3.35,0.461 44.132,6.572 44.71,8.532c0.578,1.96 -49.678,14.758 -49.678,14.758l-61.231,-6.802z" fill="white" id="svg_87"/>
  <path d="m113.669,171.102c0,0 -57.996,-2.421 -62.27,-7.264c-4.275,-4.958 -4.275,-8.301 20.91,-3.344c25.186,4.958 39.858,4.958 39.858,4.958c0,0 47.252,-17.871 48.523,-13.144c1.386,4.727 6.354,3.69 -47.021,18.794z" fill="#C0D5FF" id="svg_88"/>
  <path d="m160.69,152.309c-1.271,-4.842 -48.523,13.144 -48.523,13.144c0,0 -0.115,0 -0.462,0c0.924,1.845 1.733,3.69 2.426,5.535c52.797,-14.989 47.83,-13.952 46.559,-18.679z" fill="#B1C5E8" id="svg_89"/>
  <path d="m19.628,162.34l28.536,-6.918c0,0 6.123,41.508 7.74,43.814c1.618,2.306 49.332,4.612 49.332,4.612l13.863,0.807c0,0 -58.574,24.558 -75.441,14.643c-17.098,-10.147 -24.03,-56.958 -24.03,-56.958z" fill="#FFB39F" id="svg_90"/>
  <path d="m22.401,167.298c8.78,-2.652 17.329,-5.88 26.34,-7.84c-0.346,-2.537 -0.577,-4.036 -0.577,-4.036l-28.536,6.918c0,0 0.347,2.076 0.924,5.535c0.693,-0.231 1.271,-0.462 1.849,-0.577z" fill="#E09B8D" id="svg_91"/>
  <path d="m113.785,208.46c0,0 21.719,-5.765 21.719,-10.147c0,-4.381 -7.856,-20.177 -2.31,0.923c0,0 -11.553,-28.594 -2.311,1.383c0,0 -9.011,-23.29 -2.888,0.577c0,0 -9.243,-16.142 -2.542,1.153l-8.318,3.113l-19.987,-0.231l-10.628,10.377l27.265,-7.148z" fill="#FFB39F" id="svg_92"/>
  <path d="m164.618,187.36c0,0 -11.553,-28.594 -2.311,1.384c0,0 -9.011,-23.291 -2.888,0.576c0,0 -9.243,-16.142 -3.351,1.268l-6.354,2.998c2.311,0.231 5.315,0.115 7.741,-0.692c7.394,-1.499 9.473,-4.035 9.473,-6.341c0,-4.381 -7.856,-20.177 -2.31,0.807z" fill="#FFB39F" id="svg_93"/>
  <path d="m194.078,490.825c0,4.151 -3.35,7.61 -7.509,7.725c-4.16,0 -7.625,-3.343 -7.741,-7.494l-0.347,-24.443c0,-4.151 3.351,-7.61 7.51,-7.725c4.159,0 7.625,3.343 7.74,7.494l0.347,24.443z" fill="#091E1D" id="svg_94"/>
  <path d="m87.675,492.095c0,4.15 -3.35,7.609 -7.509,7.725c-4.159,0 -7.625,-3.344 -7.741,-7.495l-0.346,-24.443c0,-4.151 3.35,-7.61 7.509,-7.725c4.159,0 7.625,3.344 7.741,7.494l0.346,24.444z" fill="#091E1D" id="svg_95"/>
  <path d="m185.529,473.415c0.116,9.455 -7.509,17.18 -16.983,17.295l-71.166,0.807c-9.473,0.116 -17.214,-7.494 -17.329,-16.949l-7.625,-161.648c-0.116,-9.454 7.509,-17.179 16.982,-17.295l82.604,-1.037c9.474,-0.116 17.214,7.494 17.33,16.948l-3.813,161.879z" fill="#322153" id="svg_96"/>
  <path d="m188.879,327.793l0.347,-16.026c-0.115,-9.454 -7.856,-17.064 -17.329,-16.949l-82.604,1.038c-9.474,0.115 -17.099,7.84 -16.983,17.295l0.809,16.026l115.76,-1.384z" fill="#1C0C3B" id="svg_97"/>
  <path d="m202.974,307.732c0,2.651 -2.079,4.727 -4.737,4.842l-134.938,1.614c-2.658,0 -4.737,-2.075 -4.853,-4.727l-0.231,-17.064c0,-2.652 2.08,-4.727 4.737,-4.843l134.939,-1.614c2.657,0 4.737,2.076 4.852,4.727l0.231,17.065z" fill="#322153" id="svg_98"/>
  <path d="m131.346,355.119l15.712,-9.454l-3.813,9.8l-11.899,-0.346z" fill="white" id="svg_99"/>
  <path d="m125.454,340.246c0,0 1.27,0 3.234,2.997c1.964,2.998 6.355,11.069 6.355,11.069l7.971,-3.574l1.849,-3.113c0,0 -3.466,-6.918 -6.239,-7.379l-13.17,0z" fill="white" id="svg_100"/>
  <path d="m121.064,342.321c0,0 2.426,-2.652 4.39,-1.268c1.964,1.384 5.43,7.149 5.43,7.149l-5.661,9.915l-10.167,-5.649l6.008,-10.147z" fill="white" id="svg_101"/>
  <path d="m138.509,367.456l0.808,18.217l-6.816,-7.955l6.008,-10.262z" fill="white" id="svg_102"/>
  <path d="m154.451,369.301c0,0 -0.577,1.153 -4.159,1.499c-3.581,0.346 -12.823,0.346 -12.823,0.346l-0.694,8.762l1.849,3.114c0,0 7.74,0.345 9.473,-1.961l6.354,-11.76z" fill="white" id="svg_103"/>
  <path d="m154.567,364.458c0,0 1.271,3.344 -0.924,4.497c-2.08,1.038 -8.896,1.268 -8.896,1.268l-6.123,-9.685l9.82,-6.341l6.123,10.261z" fill="white" id="svg_104"/>
  <path d="m124.76,367.226l-16.175,-8.532l10.283,-1.845l5.892,10.377z" fill="white" id="svg_105"/>
  <path d="m115.056,380.024c0,0 -0.693,-1.038 0.809,-4.266c1.502,-3.229 6.123,-11.184 6.123,-11.184l-7.163,-4.958l-3.581,0.115c0,0 -4.159,6.572 -3.12,9.109l6.932,11.184z" fill="white" id="svg_106"/>
  <path d="m119.215,382.56c0,0 -3.581,-0.692 -3.35,-2.998c0.115,-2.421 3.35,-8.301 3.35,-8.301l11.438,-0.346l0.462,11.645l-11.9,0z" fill="white" id="svg_107"/>
 </g>
</svg>